# xmcd
#
# Track frame offsets: 
#        150
#        23213
#        41303
#        62623
#        80075
#        98510
#        123685
#        139380
#        156345
#        174723
#        189305
#        209578
#        234263
#        253578
#        270623
#        287443
#
# Disc length: 4154 seconds
#
# Revision: 1
# Processed by: cddbd v1.5.2PL0 Copyright (c) Steve Scherf et al.
# Submitted via: ExactAudioCopy v1.3
#
DISCID=e1103810
DTITLE=Various Artist - breeze - AOR J-Selection Cruising
DYEAR=2005
DGENRE=AOR
TTITLE0=大滝詠一 - 君は天然色
TTITLE1=杉山清貴&オメガトライブ - ふたりの夏物語 NEVER ENDING SUMMER
TTITLE2=ブレッド and バター - ピンク・シャドウ
TTITLE3=稲垣　潤一 - 夏のクラクション
TTITLE4=アン・ルイス - 恋のブギ・ウギ・トレイン
TTITLE5=渡辺貞夫 - CALIFORNIA SHOWER
TTITLE6=杏里 - 思いきりアメリカン
TTITLE7=秋山　一将 - Got That Feeling
TTITLE8=南佳孝 - モンロー・ウォーク 2004
TTITLE9=八神純子 - 思い出は美しすぎて
TTITLE10=チューリップ - 虹とスニーカーの頃
TTITLE11=サディスティックス - BLUE CURACAO
TTITLE12=スターダスト・レビュー - 今夜だけきっと
TTITLE13=石川セリ - Moonlight Surfer
TTITLE14=村田　和人 - Hello Again
TTITLE15=佐野元春 - SOMEDAY
EXTD=YEAR: 2005
EXTT0=
EXTT1=
EXTT2=
EXTT3=
EXTT4=
EXTT5=
EXTT6=
EXTT7=
EXTT8=
EXTT9=
EXTT10=
EXTT11=
EXTT12=
EXTT13=
EXTT14=
EXTT15=
PLAYORDER=
